<?xml version="1.0" encoding="utf-8"?>
<!-- Generator: Adobe Illustrator 21.1.0, SVG Export Plug-In . SVG Version: 6.00 Build 0)  -->
<svg version="1.1" id="Capa_1" xmlns="http://www.w3.org/2000/svg" xmlns:xlink="http://www.w3.org/1999/xlink" x="0px" y="0px"
	 viewBox="0 0 48 48" style="enable-background:new 0 0 48 48;" xml:space="preserve">
<style type="text/css">
	.st0{fill:#4a4a4a;}
</style>
<g>
	<path class="st0" d="M24,21.3c5.7,0,10.5-4.6,10.5-10.5c0-5.7-4.6-10.5-10.5-10.5S13.5,5,13.5,10.8C13.5,16.6,18.2,21.3,24,21.3z
		 M24,1.5c5.1,0,9.4,4.1,9.4,9.4s-4.1,9.4-9.4,9.4s-9.4-4.1-9.4-9.4S18.8,1.5,24,1.5z"/>
	<path class="st0" d="M24.2,26.7L24.2,26.7c-1.7-0.1-3.5,0.2-4,0.4c-9.7,1.7-17.2,10-17.2,20c0,0.2,0.2,0.6,0.6,0.6h40.7
		c0.2,0,0.6-0.2,0.6-0.6C44.8,36,35.7,27,24.2,26.7z M4.3,46.6c0.2-9.3,7.3-16.9,16.6-18.4l0,0c1.1-0.1,2.4-0.2,3-0.2c0,0,0,0,0.1,0
		c10.7,0,19.5,8.3,19.7,18.7H4.3V46.6z"/>
</g>
</svg>
